<?xml version="1.0" encoding="UTF-8"?><svg id="Layer_1" xmlns="http://www.w3.org/2000/svg" viewBox="0 0 1080 1080"><defs><style>.cls-1{stroke:#231f20;stroke-miterlimit:10;stroke-width:5px;}</style></defs><path class="cls-1" d="M509.6,845.81c-183.39-9.18-305.12-150.21-317.64-328.61,80.27-7.53,157.18,34.86,223.75,75.77-53.33-141.86-30.27-278.73,44.78-406.75,5.91-10.08,48.36-76.81,52.99-77.61,10.64-1.85,14.11,1.56,21.2,7.79,15.88,13.97,56.83,83.96,67.47,105.83,58.9,121.08,70.05,243.04,23.01,370.74,66.57-40.91,143.48-83.3,223.75-75.77-12.52,178.41-134.25,319.43-317.64,328.61v144.48h-21.65v-144.48ZM509.6,296.78v-151.7l-56.6,91.64c-1.19,12.97,43.59,50.46,56.6,60.07ZM531.25,361.8c14.95-12.08,79.48-68.34,78.25-81.74l-43.56-86.63-34.69-48.35v216.72ZM509.6,448.49v-126.42c0-4.8-65.13-67.72-72.11-61.41l-26.19,90.56,98.3,97.27ZM531.25,715.77c92.84-111.6,135.48-271.26,86.52-411.75l-86.52,83.06v328.69ZM509.6,715.77v-234.78l-97.47-97.49c-32.39,111.3,30.97,244.03,97.47,332.27ZM509.56,831.32c-10.19-162.88-133.1-288.41-295.88-296.14,9.1,163.87,135.78,279.9,295.88,296.14ZM827.17,535.18c-163.79,7.81-284.41,133.27-295.88,296.14,160.1-16.24,286.78-132.28,295.88-296.14Z"/></svg>