<?xml version="1.0" encoding="UTF-8"?><svg id="Layer_1" xmlns="http://www.w3.org/2000/svg" viewBox="0 0 1080 1080"><path d="M551.05,205.37c3.29.77,3.29-1.19,4.81-2.87,8.05-8.83,28.28-42.12,36.2-45.76,6.53-3.01,13.11.2,15.77,6.4,3.15,7.35-1,10.71-4.85,16.47-15.32,22.94-36.13,44.73-51.94,67.61v60.63c3.96.94,2.81-.73,3.91-2.16,20.62-26.64,40.03-54.29,60.91-80.75,11.3-10.4,25.55-.06,18.99,13.88l-83.72,112.67-.08,55.4c22.36,1.32,42.22,11.7,60.37,23.75l46.8-47.19,17.65-132.63c2.03-15.12,20.28-17.45,23.83-1.97l-13.73,106.83,43.49-42.74,12.98-91.19c4.99-13.24,20.89-12.32,23.4,1.97l-8.15,60.24,42.7-41.8c11.57-4.64,21.16,4.51,16.16,16.16-2.76,6.44-30.8,28.87-37.54,37.59-1.33,1.71-3.31,2.17-2.54,5.13l60.2-8.27c12.65,3.7,12.76,19.85.28,23.52-26.26,7.71-63.81,5.43-91.19,12.98l-42.74,43.49,106.83-13.73c15.48,3.55,13.15,21.8-1.97,23.83l-132.67,17.61-47.15,46.84c12.05,18.16,22.43,38.02,23.75,60.37l55.4-.08,112.67-83.72c13.94-6.56,24.28,7.69,13.88,18.99-26.63,20.65-54.11,40.29-80.75,60.91-1.43,1.11-3.1-.05-2.16,3.91h60.63c13.53-7.25,68.74-57.4,78.68-58.05,8.21-.54,15.34,9.45,11.82,17.03-3.68,7.94-36.94,28.14-45.79,36.21-1.68,1.53-3.64,1.52-2.87,4.81h58.92c9.72,0,9.72,22.2,0,22.2h-58.92c-.77,3.29,1.19,3.29,2.87,4.81,8.85,8.07,42.11,28.27,45.79,36.21s-3.61,17.57-11.82,17.03c-9.94-.65-65.15-50.8-78.68-58.05h-60.63l82.91,64.82c10.4,11.3.06,25.55-13.88,18.99l-112.67-83.72-55.4-.08c-1.32,22.36-11.7,42.22-23.75,60.37l47.15,46.84,132.67,17.61c15.12,2.03,17.45,20.28,1.97,23.83l-106.83-13.73,42.74,43.49c27.39,7.55,64.93,5.28,91.19,12.98,13.22,3.88,12.15,21.63-1.97,23.4l-58.52-8.16c-.77,2.96,1.21,3.41,2.54,5.13,6.74,8.72,34.78,31.15,37.54,37.59,5,11.64-4.59,20.8-16.16,16.16l-42.7-41.8,8.15,60.24c-2.51,14.29-18.42,15.21-23.4,1.97l-12.98-91.19-43.49-42.74,13.73,106.83c-.04,5.72-7.06,11.31-12.48,10.71-11.36-1.27-11.47-15.72-12.98-24.7-6.65-39.51-9.1-80.97-16.02-120.61l-46.8-47.19c-18.16,12.05-38.02,22.43-60.37,23.75l.08,72.47,83.71,112.68c6.59,13.92-7.69,24.28-18.98,13.87-21.34-25.3-39.53-55.82-60.9-80.74-1.06-1.23.08-3.2-3.92-2.17v60.63c7.65,13.68,57.32,68,58.06,78.67.57,8.21-9.47,15.34-17.03,11.83-7.12-3.3-28.43-37.26-36.21-45.79-1.53-1.68-1.52-3.64-4.81-2.87v41.84c0,9.72-22.2,9.72-22.2,0v-41.84l-41.02,48.66c-18.49,1.44-20.15-9.06-10.91-22.89,15.27-22.86,36.16-44.76,51.94-67.61v-60.63c-4-1.03-2.86.94-3.92,2.17-21.37,24.92-39.69,55.36-60.9,80.74-11.3,10.4-25.55.06-18.99-13.88l83.72-112.67.08-72.47c-22.47-1.16-42.01-12.01-60.37-23.75l-46.84,47.15-17.61,132.67c-2.03,15.12-20.28,17.45-23.83,1.97l13.73-106.83-43.49,42.74-12.98,91.19c-3.7,12.53-21.06,12.39-23.05-.62-2.25-14.76,8.24-45.11,7.79-61.58-8.87,4.4-23.6,26.78-30.75,29.85-4.75,2.04-11.18,1.74-14.64-2.37-12.22-14.53,22.19-32.77,28.33-44.54l-60.24,8.15c-14.29-2.51-15.21-18.42-1.97-23.4l91.19-12.98,42.74-43.49-106.83,13.73c-15.48-3.55-13.15-21.8,1.97-23.83l132.67-17.61,47.15-46.84c-12.05-18.16-22.43-38.02-23.75-60.37l-72.47.08-112.67,83.72c-13.5,6.75-24.23-7.92-13.88-18.99,25.3-21.34,55.82-39.53,80.74-60.9,1.23-1.06,3.2.08,2.17-3.92h-60.63c-23.09,15.39-45.56,38.03-68.59,52.67-13.51,8.59-23.91,5.34-21.91-11.64l48.66-41.02h-41.84c-9.72,0-9.72-22.2,0-22.2h41.84c.77-3.29-1.19-3.29-2.87-4.81-8.53-7.78-42.49-29.09-45.79-36.21-3.51-7.56,3.62-17.6,11.83-17.03,9.93.69,65.49,50.54,78.67,58.06h60.63c1.03-4-.94-2.86-2.17-3.92-24.92-21.37-55.36-39.69-80.74-60.9-10.4-11.29-.05-25.57,13.87-18.98l112.68,83.7,72.47.09c1.32-22.36,11.7-42.22,23.75-60.37l-47.19-46.8-132.63-17.65c-15.19-2.06-17.39-20.32-1.97-23.83l106.83,13.73-42.74-43.49-92.62-13.26c-11.92-6.62-9.96-20.44,3.09-23.44l58.83,8.47c.77-2.96-1.21-3.41-2.54-5.13-4.81-6.22-23.56-20.91-25.59-25.63-4.92-11.48,4.68-21.08,16.16-16.16,7.14,3.06,21.89,25.45,30.75,29.85-.37-18.11-8.43-41.91-7.92-59.25.42-14.35,16.76-16.48,22.9-4.38l13.26,92.62,42.66,42.73-12.9-106.82c3.35-15.43,21.98-13.09,23.83,1.97l17.61,132.67,46.84,47.15c18.16-12.05,38.02-22.43,60.37-23.75l-.02-57.17-83.78-110.9c-6.56-13.94,7.69-24.28,18.99-13.88,20.65,26.63,40.29,54.11,60.91,80.75,1.11,1.43-.05,3.1,3.91,2.16v-60.63l-58.05-78.68c-.08-8.25,9.16-15.47,17.03-11.82,7.94,3.68,28.14,36.94,36.21,45.79,1.53,1.68,1.52,3.64,4.81,2.87v-58.92c0-9.72,22.2-9.72,22.2,0v58.92Z"/></svg>