<?xml version="1.0" encoding="UTF-8"?><svg id="Layer_1" xmlns="http://www.w3.org/2000/svg" viewBox="0 0 1080 1080"><defs><style>.cls-1{fill:#fff;}</style></defs><path d="M660.87,111.9c4.43-4.24,24.83-28.67,28.18-29.42,2.99-.67,8.24,10.01,9.94,12.91,94.2,161.21,141.49,396.36,70.12,573.66-52.03,129.25-172.88,233.09-315.71,242.12-23.85,1.51-47.91-1.47-71.72-.87-3.33,1.61-29.96,55.11-36.77,64.16-7.69,10.21-16.77,11.52-15.59-3.12,4.78-10.05,39.75-62.78,37.98-69.53-46.8-53.72-84.46-110.19-101.27-180.43-33.24-138.89-4.64-265.43,83.84-375.94,86.72-108.3,214.51-141.08,311.01-233.54ZM422.42,745.62c.95,9.88-.69,20.96,0,30.99l4.04-5.7c14.31-43.5,41.71-86.91,56.5-129.44,24.64-70.88-25.09-153.97-28.65-225.25-1.84-36.76,6.86-79.83,30.07-108.89-24.51,49.94-25.04,97.16-13.28,150.54,10.43,47.38,33.83,94.67,27.44,144.29l3.54.9c66.38-140.61,129-283.96,166.51-435.62,3.37-.28,1.59,5.6,1.3,7.5-2.79,18.17-9.45,40.26-14.22,58.39-28.19,107.19-69.53,210.37-114.59,311.29,60.26-60.41,165.63-72.81,194.8-162.91,4.21,2.1.09,12.44-.99,15.85-20.17,63.68-95.55,90.8-145.88,123.3-53.79,34.73-76.7,86.16-101.39,142.99-2.16,4.97-16.98,38.43-15.61,40.16,56.08-54.93,136.48-51.15,201.72-89.57,18.55-10.93,35.01-25,50.62-39.69,1.31-.28,1.21,1.86.86,2.62-2.55,5.58-25.18,27.83-31.03,32.73-67.69,56.71-164.89,43.91-223.1,111.6-24.17,28.1-34.72,65.41-48.66,99.19,61.51-33.4,134.52-18.96,195.97-54.59,5.33-3.09,16.52-13.29,19.2-14.46,5.22-2.27,1.42,3.92-.88,6.21-57.11,56.79-144.56,35.41-206.64,71.39-27.73,16.07-27.3,37.72-41.31,64.03,142.51,18.56,275.68-60.36,343.85-182.96,79.24-142.52,67.54-316.2,15.67-466.08-16.36-47.29-36.84-93.47-61.13-137.18-91.61,98.06-223.59,132.68-313.47,233.7-122.16,137.28-144.59,343.21-37.72,496.43,4.42,6.34,35.47,48.2,39.49,47.25,23.42-42.87,40.42-87.16,36.3-137.21-3.56-43.2-32.9-78.33-49.87-116.59-20.81-46.93-29.29-98.03-13.83-148.17,3.31-.41,1.24,3.51.95,5.37-3.28,20.76-4.96,37.94-2.51,59.03,8.94,76.83,69.41,130.85,75.92,198.57Z"/><path class="cls-1" d="M422.42,745.62c-6.51-67.72-66.98-121.73-75.92-198.57-2.45-21.09-.77-38.27,2.51-59.03.29-1.86,2.37-5.78-.95-5.37-15.46,50.14-6.98,101.24,13.83,148.17,16.97,38.27,46.31,73.39,49.87,116.59,4.12,50.05-12.88,94.34-36.3,137.21-4.02.95-35.07-40.91-39.49-47.25-106.87-153.22-84.43-359.15,37.72-496.43,89.89-101.02,221.86-135.64,313.47-233.7,24.28,43.7,44.77,89.89,61.13,137.18,51.87,149.88,63.58,323.56-15.67,466.08-68.17,122.6-201.34,201.52-343.85,182.96,14.01-26.31,13.58-47.96,41.31-64.03,62.08-35.98,149.53-14.6,206.64-71.39,2.3-2.29,6.1-8.48.88-6.21-2.68,1.16-13.87,11.37-19.2,14.46-61.45,35.63-134.46,21.2-195.97,54.59,13.95-33.78,24.5-71.09,48.66-99.19,58.21-67.69,155.41-54.88,223.1-111.6,5.85-4.9,28.48-27.15,31.03-32.73.35-.77.45-2.91-.86-2.62-15.61,14.7-32.07,28.77-50.62,39.69-65.25,38.42-145.64,34.64-201.72,89.57-1.37-1.73,13.45-35.19,15.61-40.16,24.69-56.83,47.6-108.26,101.39-142.99,50.33-32.49,125.7-59.61,145.88-123.3,1.08-3.41,5.2-13.75.99-15.85-29.17,90.1-134.54,102.5-194.8,162.91,45.06-100.92,86.4-204.1,114.59-311.29,4.77-18.13,11.43-40.22,14.22-58.39.29-1.91,2.07-7.78-1.3-7.5-37.5,151.66-100.13,295.01-166.51,435.62l-3.54-.9c6.39-49.61-17.01-96.91-27.44-144.29-11.75-53.38-11.23-100.61,13.28-150.54-23.21,29.06-31.91,72.13-30.07,108.89,3.56,71.28,53.29,154.37,28.65,225.25-14.79,42.54-42.19,85.94-56.5,129.44l-4.04,5.7c-.69-10.03.95-21.11,0-30.99Z"/></svg>