<?xml version="1.0" encoding="UTF-8"?>
<svg id="Layer_1" data-name="Layer 1" xmlns="http://www.w3.org/2000/svg" viewBox="0 0 1080 1080">
  <path d="M602.94,429.52c.21-.69,2.75-2.19,3.66-2.28,8.11-.76,1.73,14.61,5.76,17.86.42.34,9.48,3.97,10.08,4.01,4.48.29,9.09-6.04,12.6-1.68,5.89,7.31-9.65,9.6-10.87,10.82-.33.32-1.7,5.18-3.23,7.26-1.89,2.56-4.76,4.81-7.83,5.66-.02,7.96,2.4,15.25,1.88,23.39-1.02,15.88-12.9,24.53-21.45,36.55-19.56,27.51-19.71,40.8-8.86,72.68,1.84,5.41,8.57,17.88,9.09,21.97.66,5.16-5.21,7.5-8.26,3.2-2.45-3.46-6.96-15.82-8.58-20.42-2.25-6.4-4.43-19.32-6.94-24.06-4.14-7.79-23.03-22.45-31.02-26.98-27.78-15.75-52.34-14.61-76.54,6.49-3.86,3.37-11.14,13.43-13.92,15.08-2.81,1.66-4.88,1.3-6.38-1.77-1.24-4.16,6.31-12.25,9.3-15.32,3.22-3.3,7.39-5.94,10.9-8.91,1.09-.93,1.08-.94.15-2.07-1.46-1.77-8.16-6.16-10.5-7.5-9.88-5.66-24.2-9.63-35.53-10.47-3.62-.27-21.86,1.1-22.53-1.68-2.37-9.81,14.42-7.74,20.58-7.38,20.13,1.17,41.78,8.35,56.1,22.88,27.59-16.26,58.89-8.38,83.27,9.75,4.35,3.24,8.83,8.85,12.57,11.43.85.58.99,1.4,2.51.98-.85-15.56,7.68-29.09,16.19-41.31,6.84-9.82,19.89-21.18,20.85-33.15.58-7.26-.98-14.46-2.04-21.54-.47-.42-10.17,2.09-12.45,2.03-4.31-.1-9.62-3.81-12.24-3.84-1.88-.02-4.56,4.09-7.3,5.32-7.82,3.51-17.62.44-22.44-6.57-1.23-1.8-12.27-25.07-12.48-26.52-1.52-10.75-1.13-39.68-.13-50.95.77-8.61,6.83-16.17,15.63-17.37,8.93-1.22,24.55,5.34,34.23,7.6,14.03,3.27,31.22,4.07,44.23,7.77,9.16,2.6,12.73,10.2,17.13,17.87,41.12,71.68,57.81,213.81,5.24,282.58-20.22,26.46-37.92,8.76-63.2,2.38-13.7-3.46-30.55-5.92-44.67-6.33-14.8-.43-19.42,5.42-32.28,9.8-31.56,10.75-66.38,7.57-95.18-9.34-3.99-2.34-16.15-8.78-10.83-14.17,3.62-3.66,11.69,4.48,15.44,6.55,37.43,20.64,76.04,18.85,112.22-3.39,3.77-2.31,17.72-13.41,20.42-13.19.89.07,2.73,1.02,3.18,1.76,3.22,5.28-5.16,9.07-8.25,11.72-.72.62-1.89-.03-1.27,2.29,18.37-.11,37,3.59,54.51,8.99,9.84,3.03,21.06,10.29,31.51,7.55s23.84-31.2,27.72-41.28c27.38-71.03,15.31-176.21-22.58-241.92-4.48-7.78-5.6-11.95-14.95-14.05-12.56-2.82-26.3-3.9-39.23-6.77-7.75-1.72-25.16-8.23-31.5-7.54-5.51.59-8.05,4.26-8.53,9.48-1.43,15.53,1.13,33.24.07,49.02.51,2.74,4.22,5.42,6.97,5.53v-25.5c0-3.17,9-3.17,9,0v30.5l7,2v-33.5c0-2.63,8-2.63,8,0v38l7.51,4.48c.87-.03,1.49-2.79,1.49-3.48v-28.5c1.94-1.36,8-1.05,8,1.5v31c.74,1.02.88,1.08,2.05,1.09,5.61.04,17.53-2.17,19.75-8.1l-2.35-2.46c-2.5-.59-2.73,6.24-7.73,4.83-.7-.2-2.72-2.02-2.72-2.35v-28ZM569.93,466.04l-14.99-7.02c.24,6.94,7.02,12.18,13.75,9.25l1.23-2.24Z"/>
  <path d="M548.7,617.28c4.4,4.98-8.72,14.28-12.46,16.54-25.27,15.32-59.94,13.61-83.63-3.97-2.78-2.06-13.58-9.88-6.67-13.34,4.49-2.24,11.88,6.31,16.08,8.93,21.01,13.09,49.11,13.78,70.24.4,4.18-2.65,12.25-13.3,16.44-8.56Z"/>
</svg>