<?xml version="1.0" encoding="UTF-8"?><svg id="Layer_1" xmlns="http://www.w3.org/2000/svg" viewBox="0 0 1080 1080"><path d="M570.07,278.26c2.52.59,2.52-.92,3.69-2.2,6.17-6.77,21.68-32.29,27.75-35.08,5-2.3,10.05.15,12.09,4.9,2.41,5.64-.77,8.21-3.72,12.62-11.74,17.58-27.7,34.29-39.82,51.84v46.48c3.04.72,2.15-.56,3-1.65,15.81-20.43,30.69-41.62,46.7-61.91,8.67-7.97,19.59-.04,14.56,10.64l-64.18,86.38-.06,42.47c17.14,1.01,32.37,8.97,46.29,18.2l35.88-36.18,13.53-101.68c1.56-11.59,15.55-13.38,18.27-1.51l-10.53,81.9,33.34-32.77,9.95-69.91c3.82-10.15,16.02-9.45,17.94,1.51l-6.25,46.18,32.74-32.05c8.87-3.56,16.22,3.46,12.39,12.39-2.12,4.93-23.62,22.13-28.78,28.82-1.02,1.31-2.54,1.67-1.95,3.93l46.15-6.34c9.69,2.84,9.79,15.22.22,18.03-20.13,5.91-48.92,4.16-69.91,9.95l-32.77,33.34,81.9-10.53c11.87,2.72,10.08,16.71-1.51,18.27l-101.71,13.5-36.15,35.91c9.24,13.92,17.19,29.14,18.2,46.29l42.47-.06,86.38-64.18c10.68-5.03,18.62,5.89,10.64,14.56-20.42,15.83-41.48,30.89-61.91,46.7-1.09.85-2.38-.04-1.65,3h46.48c10.37-5.56,52.7-44.01,60.32-44.51,6.3-.41,11.76,7.24,9.06,13.05-2.82,6.09-28.32,21.57-35.11,27.76-1.28,1.17-2.79,1.17-2.2,3.69h45.17c7.45,0,7.45,17.02,0,17.02h-45.17c-.59,2.52.92,2.52,2.2,3.69,6.79,6.19,32.28,21.67,35.11,27.76s-2.77,13.47-9.06,13.05c-7.62-.5-49.95-38.94-60.32-44.51h-46.48l63.56,49.69c7.97,8.67.04,19.59-10.64,14.56l-86.38-64.18-42.47-.06c-1.01,17.14-8.97,32.37-18.2,46.29l36.15,35.91,101.71,13.5c11.59,1.55,13.38,15.55,1.51,18.27l-81.9-10.53,32.77,33.34c21,5.79,49.77,4.05,69.91,9.95,10.14,2.97,9.31,16.58-1.51,17.94l-44.86-6.25c-.59,2.27.93,2.62,1.95,3.93,5.17,6.68,26.66,23.88,28.78,28.82,3.83,8.93-3.52,15.94-12.39,12.39l-32.74-32.05,6.25,46.18c-1.93,10.96-14.12,11.66-17.94,1.51l-9.95-69.91-33.34-32.77,10.53,81.9c-.03,4.38-5.41,8.67-9.57,8.21-8.71-.98-8.79-12.05-9.95-18.94-5.1-30.29-6.97-62.07-12.28-92.46l-35.88-36.18c-13.92,9.24-29.14,17.19-46.29,18.2l.06,55.56,64.17,86.39c5.05,10.67-5.9,18.61-14.55,10.63-16.36-19.4-30.31-42.79-46.69-61.9-.81-.95.06-2.45-3-1.66v46.48c5.87,10.48,43.94,52.13,44.51,60.32.44,6.29-7.26,11.76-13.06,9.07-5.46-2.53-21.8-28.57-27.76-35.11-1.17-1.28-1.17-2.79-3.69-2.2v32.08c0,7.45-17.02,7.45-17.02,0v-32.08l-31.45,37.31c-14.17,1.1-15.45-6.95-8.37-17.55,11.7-17.52,27.72-34.31,39.82-51.84v-46.48c-3.07-.79-2.19.72-3,1.66-16.38,19.1-30.42,42.45-46.69,61.9-8.67,7.97-19.59.04-14.56-10.64l64.18-86.38.06-55.56c-17.23-.89-32.21-9.21-46.29-18.2l-35.91,36.15-13.5,101.71c-1.56,11.59-15.55,13.38-18.27,1.51l10.53-81.9-33.34,32.77-9.95,69.91c-2.83,9.61-16.15,9.5-17.67-.48-1.73-11.32,6.31-34.58,5.97-47.21-6.8,3.37-18.1,20.53-23.57,22.88-3.64,1.56-8.57,1.34-11.22-1.82-9.37-11.14,17.01-25.12,21.72-34.14l-46.18,6.25c-10.96-1.93-11.66-14.12-1.51-17.94l69.91-9.95,32.77-33.34-81.9,10.53c-11.87-2.72-10.08-16.71,1.51-18.27l101.71-13.5,36.15-35.91c-9.24-13.92-17.19-29.14-18.2-46.29l-55.56.06-86.38,64.18c-10.35,5.17-18.57-6.07-10.64-14.56,19.4-16.36,42.79-30.31,61.9-46.69.95-.81,2.45.06,1.66-3h-46.48c-17.7,11.8-34.93,29.16-52.58,40.38-10.36,6.58-18.33,4.1-16.8-8.93l37.31-31.45h-32.08c-7.45,0-7.45-17.02,0-17.02h32.08c.59-2.52-.92-2.52-2.2-3.69-6.54-5.96-32.58-22.3-35.11-27.76-2.69-5.8,2.78-13.5,9.07-13.06,7.61.53,50.21,38.75,60.32,44.51h46.48c.79-3.07-.72-2.19-1.66-3-19.1-16.38-42.45-30.42-61.9-46.69-7.98-8.65-.04-19.6,10.63-14.55l86.39,64.17,55.56.07c1.01-17.14,8.97-32.37,18.2-46.29l-36.18-35.88-101.68-13.53c-11.64-1.58-13.33-15.58-1.51-18.27l81.9,10.53-32.77-33.34-71.01-10.17c-9.14-5.08-7.64-15.67,2.37-17.97l45.1,6.49c.59-2.27-.93-2.62-1.95-3.93-3.69-4.77-18.06-16.03-19.62-19.65-3.77-8.8,3.59-16.16,12.39-12.39,5.47,2.35,16.78,19.51,23.57,22.88-.28-13.88-6.46-32.13-6.07-45.43.32-11,12.85-12.63,17.55-3.36l10.17,71.01,32.7,32.76-9.89-81.89c2.57-11.83,16.85-10.03,18.27,1.51l13.5,101.71,35.91,36.15c13.92-9.24,29.14-17.19,46.29-18.2l-.02-43.83-64.23-85.02c-5.03-10.68,5.89-18.62,14.56-10.64,15.83,20.42,30.89,41.48,46.7,61.91.85,1.09-.04,2.38,3,1.65v-46.48l-44.51-60.32c-.06-6.32,7.02-11.86,13.05-9.06s21.57,28.32,27.76,35.11c1.17,1.28,1.17,2.79,3.69,2.2v-45.17c0-7.45,17.02-7.45,17.02,0v45.17Z"/></svg>