<?xml version="1.0" encoding="UTF-8"?><svg id="Layer_1" xmlns="http://www.w3.org/2000/svg" viewBox="0 0 1080 1080"><path d="M572.47,253.94c18.86,5.01,38.39,7.18,57.12,12.97,80.99,25.05,152.24,96.36,177.27,177.44,5.79,18.74,7.96,38.3,12.96,57.17-1.18,17.82,1.62,37.46,0,55.02-21.58,233.84-319.32,333.11-478.29,158.25-151.1-166.2-46.44-440.29,175.97-460.85h54.97ZM530.68,260.26c-208.17,12.21-326.7,249.16-206.18,422.06,110.42,158.4,349.75,152.33,449.75-13.21,111.07-183.87-29.21-421.43-243.57-408.85Z"/><path d="M542.24,683.09c-69.84-3.5-116.19-57.2-120.96-125.14,30.57-2.87,59.85,13.27,85.21,28.85-20.31-54.02-11.53-106.14,17.05-154.89,2.25-3.84,18.42-29.25,20.18-29.56,4.05-.7,5.37.59,8.07,2.97,6.05,5.32,21.64,31.97,25.69,40.3,22.43,46.11,26.68,92.55,8.76,141.18,25.35-15.58,54.64-31.72,85.21-28.85-4.77,67.94-51.12,121.64-120.96,125.14v55.02h-8.25v-55.02ZM542.24,474.02v-57.77l-21.55,34.9c-.45,4.94,16.6,19.21,21.55,22.87ZM550.48,498.77c5.69-4.6,30.27-26.03,29.8-31.13l-16.59-32.99-13.21-18.41v82.53ZM542.24,531.79v-48.14c0-1.83-24.8-25.79-27.46-23.38l-9.97,34.48,37.43,37.04ZM550.48,633.57c35.35-42.5,51.59-103.3,32.95-156.8l-32.95,31.63v125.17ZM542.24,633.57v-89.41l-37.12-37.12c-12.34,42.38,11.79,92.93,37.12,126.53ZM542.22,677.57c-3.88-62.03-50.68-109.83-112.67-112.77,3.46,62.4,51.7,106.59,112.67,112.77ZM663.17,564.8c-62.37,2.97-108.31,50.75-112.67,112.77,60.97-6.18,109.21-50.37,112.67-112.77Z"/><path d="M546.36,320.02c6.05,0,6.05,30.15,0,30.15-7.04-3.63-5.27-30.15,0-30.15Z"/><path d="M476.26,380.47c-2.97,3.24-25.22-19.1-21.96-21.98,7.51-3.4,26.32,17.23,21.96,21.98Z"/><path d="M638.42,358.49c3.24,2.97-19.08,25.24-21.96,21.98-3.39-7.51,17.21-26.34,21.96-21.98Z"/><path d="M509.24,358.46c-7.35,1.41-4.77-1.62-6.7-5.52-3.1-6.23-6.69-14.94-7.01-21.97,5.2-5.94,16.41,23.36,13.71,27.48Z"/><path d="M597.19,330.98c1.71,1.96-5.3,18.54-7.01,21.97-1.94,3.89.65,6.92-6.7,5.52-2.7-4.12,8.51-33.42,13.71-27.48Z"/><path d="M665.9,397l-1.85,8.28-25.61,8.2c-5.53-5.02,23.85-16.19,27.45-16.48Z"/></svg>