<?xml version="1.0" encoding="UTF-8"?>
<!DOCTYPE svg PUBLIC "-//W3C//DTD SVG 1.1//EN" "http://www.w3.org/Graphics/SVG/1.1/DTD/svg11.dtd">
<!-- Creator: CorelDRAW -->
<svg xmlns="http://www.w3.org/2000/svg" xml:space="preserve" width="0.924681in" height="1.09523in" version="1.1" style="shape-rendering:geometricPrecision; text-rendering:geometricPrecision; image-rendering:optimizeQuality; fill-rule:evenodd; clip-rule:evenodd"
viewBox="0 0 62.05 73.5"
 xmlns:xlink="http://www.w3.org/1999/xlink"
 xmlns:xodm="http://www.corel.com/coreldraw/odm/2003">
 <defs>
  <style type="text/css">
   <![CDATA[
    .fil0 {fill:#421D01}
   ]]>
  </style>
 </defs>
 <g id="Layer_x0020_1">
  <metadata id="CorelCorpID_0Corel-Layer"/>
  <path class="fil0" d="M30.9 31.02c-3.87,-4.14 -6.29,-18.17 -28.31,-10.92 -1.56,7.89 2.12,15.06 6.33,18.21 7.16,5.35 11.28,3.59 20.56,2.71l0.15 15.1c-7.31,2.02 -11.65,1.32 -18.78,4.86 -4.78,2.38 -11.44,6.51 -10.81,11.46 4.52,1.81 37.34,0.75 46.81,0.76 3.74,0.01 12.17,0.61 15.1,-1.13 1,-4.63 -5.25,-9.57 -9.07,-11.74 -5.77,-3.28 -11.09,-3.44 -18.44,-3.89 -0.9,-3.63 -0.94,-20.26 0.43,-23.09 0.97,-1.33 -0.07,-0.72 4.54,-0.8 2.81,-0.05 3.54,0.05 6.17,-1.02 3.77,-1.53 6.54,-4.42 8.1,-6.74 2.79,-4.16 5.41,-20.65 2.23,-24.29 -0.53,-0.6 -13.89,-2.06 -20.45,6.03 -6.2,7.65 -3.52,14.22 -4.55,24.48zm-24.43 38.43l49.74 -0.23c-2.15,-3.92 -4.38,-5.4 -9.05,-6.94 -12.63,-4.16 -36.12,-1.44 -40.69,7.17zm45.66 -53.6l0.48 -11.67 -7.36 1.03c-8.63,1.07 -10.88,9.64 -10.35,19.25 4.22,-2.75 3.21,-7.57 9.51,-8.73 -1.4,5.99 -4.73,8.25 -6.68,12.46 6.93,3.03 14,-4.59 14.4,-12.34zm-36.25 22.01c3.93,1.27 6.35,0.44 9.98,-0.08 -2.83,-6.34 -7.1,-2.94 -7.76,-9.39 4.78,0.46 5.18,2.6 8.31,4.33 -1.75,-7.79 -10.18,-14.08 -19.72,-9.2 -0.48,6.2 3.34,12.45 9.19,14.33z"/>
 </g>
</svg>
